<svg xmlns="http://www.w3.org/2000/svg">
  <symbol xmlns="http://www.w3.org/2000/svg" width="44" height="44" viewBox="0 0 44 44" id="instagram">
    <g clip-path="url(#clip0_25368_1537)">
      <path d="M19.9804 5.88005C19.9336 4.81738 19.7617 4.0868 19.5155 3.45374C19.2616 2.78176 18.8709 2.18014 18.359 1.68002C17.8589 1.1721 17.2533 0.777435 16.5891 0.527447C15.9524 0.281274 15.2256 0.109427 14.1629 0.0625732C13.0923 0.0117516 12.7524 0 10.0371 0C7.3217 0 6.98182 0.0117516 5.91517 0.0586052C4.8525 0.105459 4.12192 0.277459 3.48901 0.523479C2.81689 0.777435 2.21527 1.16814 1.71514 1.68002C1.20723 2.18014 0.812712 2.78573 0.562572 3.44992C0.3164 4.0868 0.144553 4.81341 0.0976989 5.87609C0.0468773 6.9467 0.0351257 7.28658 0.0351257 10.002C0.0351257 12.7173 0.0468773 13.0572 0.0937309 14.1239C0.140584 15.1865 0.312584 15.9171 0.558757 16.5502C0.812712 17.2221 1.20723 17.8238 1.71514 18.3239C2.21527 18.8318 2.82085 19.2265 3.48505 19.4765C4.12192 19.7226 4.84853 19.8945 5.91136 19.9413C6.97785 19.9883 7.31788 19.9999 10.0333 19.9999C12.7486 19.9999 13.0885 19.9883 14.1552 19.9413C15.2178 19.8945 15.9484 19.7226 16.5813 19.4765C17.9254 18.9568 18.9881 17.8941 19.5078 16.5502C19.7538 15.9133 19.9258 15.1865 19.9726 14.1239C20.0195 13.0572 20.0312 12.7173 20.0312 10.002C20.0312 7.28658 20.0273 6.9467 19.9804 5.88005ZM18.1794 14.0457C18.1363 15.0225 17.9723 15.5499 17.8355 15.9015C17.4995 16.7728 16.8079 17.4643 15.9367 17.8004C15.585 17.9372 15.0538 18.1012 14.0808 18.1441C13.0259 18.1911 12.7096 18.2027 10.041 18.2027C7.37252 18.2027 7.05218 18.1911 6.0011 18.1441C5.02435 18.1012 4.4969 17.9372 4.14527 17.8004C3.71168 17.6402 3.31701 17.3862 2.99667 17.0541C2.66457 16.7298 2.41062 16.3391 2.25037 15.9055C2.11362 15.5539 1.94956 15.0225 1.90667 14.0497C1.85967 12.9948 1.84807 12.6783 1.84807 10.0097C1.84807 7.34122 1.85967 7.02087 1.90667 5.96995C1.94956 4.99319 2.11362 4.46575 2.25037 4.11412C2.41062 3.68038 2.66457 3.28586 3.00064 2.96536C3.3248 2.63327 3.7155 2.37931 4.14924 2.21921C4.50087 2.08247 5.03228 1.9184 6.00507 1.87537C7.05996 1.82851 7.37649 1.81676 10.0449 1.81676C12.7173 1.81676 13.0337 1.82851 14.0848 1.87537C15.0615 1.9184 15.589 2.08247 15.9406 2.21921C16.3742 2.37931 16.7689 2.63327 17.0892 2.96536C17.4213 3.28967 17.6753 3.68038 17.8355 4.11412C17.9723 4.46575 18.1363 4.99701 18.1794 5.96995C18.2262 7.02484 18.238 7.34122 18.238 10.0097C18.238 12.6783 18.2262 12.9908 18.1794 14.0457Z" />
      <path d="M10.0371 4.86426C7.20069 4.86426 4.89937 7.16543 4.89937 10.002C4.89937 12.8385 7.20069 15.1397 10.0371 15.1397C12.8736 15.1397 15.1748 12.8385 15.1748 10.002C15.1748 7.16543 12.8736 4.86426 10.0371 4.86426ZM10.0371 13.3347C8.19698 13.3347 6.70438 11.8422 6.70438 10.002C6.70438 8.16172 8.19698 6.66927 10.0371 6.66927C11.8774 6.66927 13.3698 8.16172 13.3698 10.002C13.3698 11.8422 11.8774 13.3347 10.0371 13.3347Z" />
      <path d="M16.5775 4.6611C16.5775 5.32346 16.0405 5.86052 15.378 5.86052C14.7156 5.86052 14.1785 5.32346 14.1785 4.6611C14.1785 3.99858 14.7156 3.46167 15.378 3.46167C16.0405 3.46167 16.5775 3.99858 16.5775 4.6611Z" />
    </g>
    <defs>
      <clipPath id="clip0_25368_1537">
        <rect width="20" height="20" fill="white"/>
      </clipPath>
    </defs>
  </symbol>

  <symbol width="20" height="20" viewBox="0 0 20 20" xmlns="http://www.w3.org/2000/svg" id="twitter">
    <g clip-path="url(#clip0_25368_1531)">
    <path d="M20 3.79875C19.2563 4.125 18.4637 4.34125 17.6375 4.44625C18.4875 3.93875 19.1363 3.14125 19.4412 2.18C18.6488 2.6525 17.7738 2.98625 16.8412 3.1725C16.0887 2.37125 15.0162 1.875 13.8462 1.875C11.5763 1.875 9.74875 3.7175 9.74875 5.97625C9.74875 6.30125 9.77625 6.61375 9.84375 6.91125C6.435 6.745 3.41875 5.11125 1.3925 2.6225C1.03875 3.23625 0.83125 3.93875 0.83125 4.695C0.83125 6.115 1.5625 7.37375 2.6525 8.1025C1.99375 8.09 1.3475 7.89875 0.8 7.5975C0.8 7.61 0.8 7.62625 0.8 7.6425C0.8 9.635 2.22125 11.29 4.085 11.6712C3.75125 11.7625 3.3875 11.8062 3.01 11.8062C2.7475 11.8062 2.4825 11.7913 2.23375 11.7362C2.765 13.36 4.2725 14.5538 6.065 14.5925C4.67 15.6838 2.89875 16.3412 0.98125 16.3412C0.645 16.3412 0.3225 16.3263 0 16.285C1.81625 17.4563 3.96875 18.125 6.29 18.125C13.835 18.125 17.96 11.875 17.96 6.4575C17.96 6.27625 17.9538 6.10125 17.945 5.9275C18.7588 5.35 19.4425 4.62875 20 3.79875Z" />
    </g>
    <defs>
    <clipPath id="clip0_25368_1531">
    <rect width="20" height="20" />
    </clipPath>
    </defs>
  </symbol>

  <symbol xmlns="http://www.w3.org/2000/svg" width="20" height="20" viewBox="0 0 20 20" id="facebook" >
    <g clip-path="url(#clip0_25368_1527)">
      <path d="M13.3308 3.32083H15.1567V0.140833C14.8417 0.0975 13.7583 0 12.4967 0C9.86417 0 8.06084 1.65583 8.06084 4.69917V7.5H5.15584V11.055H8.06084V20H11.6225V11.0558H14.41L14.8525 7.50083H11.6217V5.05167C11.6225 4.02417 11.8992 3.32083 13.3308 3.32083Z" />
    </g>
    <defs>
      <clipPath id="clip0_25368_1527">
        <rect width="20" height="20" />
      </clipPath>
    </defs>
  </symbol>

  <symbol xmlns="http://www.w3.org/2000/svg" width="20" height="20" viewBox="0 0 20 20" id="linkedin">
    <g clip-path="url(#clip0_25368_1521)">
      <path d="M19.995 20.0001V19.9993H20V12.6643C20 9.07593 19.2275 6.31177 15.0325 6.31177C13.0158 6.31177 11.6625 7.41843 11.11 8.4676H11.0517V6.64677H7.07416V19.9993H11.2158V13.3876C11.2158 11.6468 11.5458 9.96343 13.7017 9.96343C15.8258 9.96343 15.8575 11.9501 15.8575 13.4993V20.0001H19.995Z" />
      <path d="M0.329987 6.64746H4.47665V20H0.329987V6.64746Z" />
      <path d="M2.40167 0C1.07583 0 0 1.07583 0 2.40167C0 3.7275 1.07583 4.82583 2.40167 4.82583C3.7275 4.82583 4.80333 3.7275 4.80333 2.40167C4.8025 1.07583 3.72667 0 2.40167 0V0Z" />
    </g>
    <defs>
      <clipPath id="clip0_25368_1521">
        <rect width="20" height="20" />
      </clipPath>
    </defs>
  </symbol>

</svg>