<svg xmlns="http://www.w3.org/2000/svg">

  <symbol xmlns="http://www.w3.org/2000/svg" width="8" height="8" viewBox="0 0 8 8" id="close">
    <g clip-path="url(#clip0_297024_952)">
      <path d="M8 0.805714L7.19429 0L4 3.19429L0.805714 0L0 0.805714L3.19429 4L0 7.19429L0.805714 8L4 4.80571L7.19429 8L8 7.19429L4.80571 4L8 0.805714Z" />
    </g>
    <defs>
      <clipPath id="clip0_297024_952">
        <rect width="8" height="8" fill="white"/>
      </clipPath>
    </defs>
  </symbol>

  <symbol xmlns="http://www.w3.org/2000/svg" width="10" height="8" viewBox="0 0 10 8" id="check">
    <path d="M4.55601 6.04735L8.8065 0.602543L8.80755 0.601507C8.88442 0.535224 8.98229 0.499245 9.08312 0.500012C9.1912 0.500834 9.29526 0.543818 9.3732 0.620714C9.45123 0.697694 9.49693 0.802682 9.49985 0.913692C9.50277 1.02471 9.46264 1.13206 9.38869 1.21317L9.37733 1.22563L9.36683 1.23882L4.48594 7.37592C4.44951 7.41268 4.40676 7.44231 4.35987 7.46339C4.3085 7.48648 4.25313 7.49888 4.19705 7.49993C4.14097 7.50097 4.0852 7.49064 4.03303 7.46948C3.98087 7.44832 3.9333 7.41673 3.89324 7.37645L3.89322 7.37643L0.64733 4.11304L0.641108 4.10678L0.634668 4.10075C0.593293 4.06199 0.55995 4.0151 0.536768 3.96279L0.136027 4.14039L0.536768 3.96279C0.513583 3.91047 0.501074 3.85389 0.500066 3.79645C0.499058 3.739 0.509573 3.682 0.530919 3.62887C0.552262 3.57575 0.583957 3.52767 0.623976 3.48743C0.663987 3.44721 0.711495 3.41564 0.763592 3.39449C0.815684 3.37333 0.871385 3.36298 0.927399 3.36397C0.983414 3.36497 1.03873 3.37729 1.09008 3.40029C1.14142 3.42329 1.18782 3.45654 1.22643 3.49819L1.23246 3.5047L1.23873 3.511L3.80747 6.09236L4.20725 6.4941L4.55601 6.04735Z" />
  </symbol>

  <symbol xmlns="http://www.w3.org/2000/svg" width="18" height="18" viewBox="0 0 18 18" id="profile">
    <g clip-path="url(#clip0_584753_905)">
      <path d="M9 9C10.6575 9 12 7.6575 12 6C12 4.3425 10.6575 3 9 3C7.3425 3 6 4.3425 6 6C6 7.6575 7.3425 9 9 9ZM9 10.5C6.9975 10.5 3 11.505 3 13.5V14.25C3 14.6625 3.3375 15 3.75 15H14.25C14.6625 15 15 14.6625 15 14.25V13.5C15 11.505 11.0025 10.5 9 10.5Z" />
    </g>
    <defs>
      <clipPath id="clip0_584753_905">
        <rect width="18" height="18" fill="white"/>
      </clipPath>
    </defs>
  </symbol>

  <symbol xmlns="http://www.w3.org/2000/svg" width="18" height="24" viewBox="0 0 18 24" id="telephone">
    <g clip-path="url(#clip0_297083_8305)">
      <path d="M14.7263 13.8651L12.8881 13.6552C12.4467 13.6046 12.0125 13.7566 11.7013 14.0677L10.3697 15.3993C8.3217 14.3572 6.64276 12.6855 5.60067 10.6303L6.93947 9.29144C7.25065 8.98025 7.40263 8.54605 7.35197 8.1046L7.1421 6.28092C7.05526 5.55 6.44013 5 5.70198 5H4.45002C3.63226 5 2.952 5.68026 3.00266 6.49802C3.38621 12.6783 8.32894 17.6138 14.5019 17.9973C15.3197 18.048 15.9999 17.3677 15.9999 16.55V15.298C16.0072 14.5671 15.4572 13.952 14.7263 13.8651Z" />
    </g>
    <defs>
      <clipPath id="clip0_297083_8305">
        <rect width="18" height="24" fill="white"/>
      </clipPath>
    </defs>
  </symbol>

  <symbol xmlns="http://www.w3.org/2000/svg" width="18" height="24" viewBox="0 0 18 24" id="email">
    <g clip-path="url(#clip0_297083_8311)">
      <path d="M15 6H3C2.175 6 1.5075 6.675 1.5075 7.5L1.5 16.5C1.5 17.325 2.175 18 3 18H15C15.825 18 16.5 17.325 16.5 16.5V7.5C16.5 6.675 15.825 6 15 6ZM14.7 9.1875L9.3975 12.5025C9.1575 12.6525 8.8425 12.6525 8.6025 12.5025L3.3 9.1875C3.1125 9.0675 3 8.865 3 8.6475C3 8.145 3.5475 7.845 3.975 8.1075L9 11.25L14.025 8.1075C14.4525 7.845 15 8.145 15 8.6475C15 8.865 14.8875 9.0675 14.7 9.1875Z" />
    </g>
    <defs>
      <clipPath id="clip0_297083_8311">
        <rect width="18" height="24" fill="white"/>
      </clipPath>
    </defs>
  </symbol>
</svg>